<mxfile host="app.diagrams.net" modified="2023-10-06T07:14:28.319Z" agent="Mozilla/5.0 (Windows NT 10.0; Win64; x64) AppleWebKit/537.36 (KHTML, like Gecko) Chrome/117.0.0.0 Safari/537.36" version="22.0.1" etag="gBruxE6WNClBHCzzzzOv" type="github">
  <diagram name="Страница — 1" id="ykxJk71dv9v_vAQylzTN">
    <mxGraphModel>
      <root>
        <mxCell id="0" />
        <mxCell id="1" parent="0" />
      </root>
    </mxGraphModel>
  </diagram>
</mxfile>
